<svg width="372" height="372" viewBox="0 0 372 372" fill="none" xmlns="http://www.w3.org/2000/svg">
    <g id="mute-button">
        <path fill-rule="evenodd" clip-rule="evenodd" d="M186.001 372C288.726 372 372.001 288.725 372.001 186C372.001 83.275 288.726 0 186.001 0C83.2758 0 0.000732422 83.275 0.000732422 186C0.000732422 288.725 83.2758 372 186.001 372ZM274.438 98.3825C271.319 95.2597 266.254 95.2597 263.136 98.3825C260.014 101.502 260.014 106.563 263.136 109.684C306.87 153.417 306.87 224.579 263.136 268.312C260.014 271.432 260.014 276.495 263.136 279.615C264.696 281.175 266.742 281.955 268.787 281.955C270.831 281.955 272.88 281.175 274.438 279.615C324.403 229.647 324.403 148.347 274.438 98.3825ZM136.614 147.101L200.489 100.755C202.611 99.4785 205.038 99.8344 206.948 101.718C208.855 103.6 210.001 106.751 210.001 110.125V267.876C210.001 271.251 208.855 274.403 206.948 276.284C205.792 277.419 204.45 278 203.1 278C202.217 278 201.327 277.752 200.489 277.246L136.614 230.902H97.9015C94.0912 230.902 91.0007 226.37 91.0007 220.78V157.225C91.0007 151.634 94.0912 147.101 97.9015 147.101H136.614ZM240.636 253.81C238.591 253.81 236.546 253.029 234.985 251.469C231.862 248.349 231.862 243.287 234.985 240.167C263.198 211.951 263.198 166.042 234.985 137.827C231.862 134.706 231.862 129.645 234.985 126.525C238.102 123.403 243.169 123.403 246.286 126.525C280.737 160.973 280.737 217.023 246.286 251.469C244.729 253.029 242.68 253.81 240.636 253.81Z" fill="#205F92"/>
    </g>
</svg>
