<svg width="372" height="372" viewBox="0 0 372 372" fill="none" xmlns="http://www.w3.org/2000/svg">
<circle cx="186.001" cy="186" r="186" fill="#205F92"/>
<path fill-rule="evenodd" clip-rule="evenodd" d="M263.136 98.3825C266.254 95.2597 271.319 95.2597 274.438 98.3825C324.403 148.347 324.403 229.647 274.438 279.615C272.88 281.175 270.831 281.955 268.787 281.955C266.742 281.955 264.696 281.175 263.136 279.615C260.014 276.495 260.014 271.432 263.136 268.312C306.87 224.579 306.87 153.417 263.136 109.684C260.014 106.563 260.014 101.502 263.136 98.3825ZM200.489 100.755L136.614 147.101H97.9015C94.0912 147.101 91.0007 151.634 91.0007 157.225V220.78C91.0007 226.37 94.0912 230.902 97.9015 230.902H136.614L200.489 277.246C201.327 277.752 202.217 278 203.1 278C204.45 278 205.792 277.419 206.948 276.284C208.855 274.403 210.001 271.251 210.001 267.876V110.125C210.001 106.751 208.855 103.6 206.948 101.718C205.038 99.8344 202.611 99.4785 200.489 100.755ZM234.985 251.469C236.546 253.029 238.591 253.81 240.636 253.81C242.68 253.81 244.729 253.029 246.286 251.469C280.737 217.023 280.737 160.973 246.286 126.525C243.169 123.403 238.102 123.403 234.985 126.525C231.862 129.645 231.862 134.706 234.985 137.827C263.198 166.042 263.198 211.951 234.985 240.167C231.862 243.287 231.862 248.349 234.985 251.469Z" fill="#FEFEFE" fill-opacity="0.74"/>
</svg>
