<svg width="372" height="372" viewBox="0 0 372 372" fill="none" xmlns="http://www.w3.org/2000/svg">
    <g id="play-button">
        <path d="M77.7204 98.2139C73.4201 94.7485 67.1247 95.4253 63.6593 99.7256C60.1938 104.026 60.8706 110.321 65.171 113.787L279.726 286.687C284.026 290.152 290.322 289.476 293.787 285.175C297.253 280.875 296.576 274.58 292.275 271.114L286.142 266.171C324.038 215.994 320.137 144.082 274.437 98.3828C271.318 95.2599 266.254 95.2599 263.135 98.3828C260.013 101.502 260.013 106.563 263.135 109.684C303.011 149.559 306.529 212.237 273.688 256.136L255.121 241.173C280.43 206.634 277.484 157.721 246.286 126.526C243.169 123.403 238.102 123.403 234.985 126.526C231.862 129.646 231.862 134.707 234.985 137.827C260.353 163.198 262.911 202.873 242.658 231.13L210 204.812V110.125C210 106.751 208.854 103.6 206.947 101.718C205.037 99.8348 202.61 99.4789 200.488 100.755L137.546 146.425L77.7204 98.2139Z" fill="#205F92"/>
        <path d="M91.2829 154.346C91.0987 155.259 90.9998 156.225 90.9998 157.225V220.78C90.9998 226.37 94.0902 230.902 97.9005 230.902H136.613L200.488 277.246C201.326 277.752 202.216 278 203.099 278C204.449 278 205.791 277.419 206.947 276.284C208.854 274.403 210 271.251 210 267.876V250.015L91.2829 154.346Z" fill="#205F92"/>
        <circle opacity="0.4" cx="186" cy="186" r="186" fill="#C4C4C4"/>
    </g>
</svg>
